<svg xmlns="http://www.w3.org/2000/svg" width="207.811" height="54" viewBox="0 0 207.811 54">
  <g id="logo" transform="translate(0.001 0.001)">
    <path id="Path_3" data-name="Path 3" d="M53.99,27.831l-.023.466c-.022.316-.021.735-.1,1.4-.035.319-.058.686-.115,1.068l-.191,1.246c-.093.445-.178.927-.3,1.433s-.255,1.043-.443,1.6a25.809,25.809,0,0,1-3.7,7.468A27.18,27.18,0,0,1,41.4,49.772a28.532,28.532,0,0,1-5.416,2.621c-.487.178-.989.327-1.491.487-.512.128-1.018.291-1.544.392-.261.058-.523.117-.786.174s-.53.1-.8.147c-.532.1-1.075.165-1.621.232s-1.1.092-1.654.134c-.124,0-.25,0-.374.005l-.1.035-.218-.031c-.33.009-.658.024-1,.013l-.837-.015c-.281-.008-.569-.035-.855-.052-.577-.027-1.143-.11-1.718-.176a25.667,25.667,0,0,1-3.427-.719c-.573-.145-1.131-.35-1.7-.534-.554-.218-1.123-.41-1.668-.667a26.5,26.5,0,0,1-6.267-3.8A27.774,27.774,0,0,1,4.8,42.468,27.047,27.047,0,0,1,29.922.157a26.523,26.523,0,0,1,6.606,1.574,27.24,27.24,0,0,1,16.616,18.73,26.369,26.369,0,0,1,.81,5.4c.046.629.026,1.112.034,1.437l0,.492ZM51,27.755v.038l-.021-.439c-.02-.288-.017-.719-.083-1.276a23.236,23.236,0,0,0-.913-4.739,24.144,24.144,0,0,0-3.194-6.712,24.877,24.877,0,0,0-6.806-6.688,25.242,25.242,0,0,0-4.849-2.475,24.569,24.569,0,0,0-5.651-1.383c-.5-.068-.961-.089-1.461-.136L27.2,3.918,26.78,3.9l-.34,0c-.515,0-1.033.008-1.553.052-.522.019-1.041.094-1.566.15a23.119,23.119,0,0,0-3.132.635c-.525.128-1.035.314-1.555.477-.507.2-1.029.367-1.528.6a24.232,24.232,0,0,0-5.757,3.445,25.5,25.5,0,0,0-4.737,5.061A24.6,24.6,0,0,0,2.163,27.793a27.643,27.643,0,0,0,.164,3.649,26,26,0,0,0,.693,3.592A24.744,24.744,0,0,0,15.919,50.7l12.849-9.507v2.551l-11.121,7.73c.7.28,1.406.539,2.121.753l9-6.333v2.551l-6.249,4.427a24.822,24.822,0,0,0,2.691.337L28.768,50.6v2.59c.3-.024.6-.041.894-.077.2-.023.4-.061.6-.089V7.408l2.058,2.654V52.639q.738-.174,1.452-.393V11.935l2.058,2.653V51.517c.5-.2.98-.425,1.453-.657v-34.4l2.058,2.655,0,30.6c.482-.3.953-.6,1.4-.927A24.783,24.783,0,0,0,47.453,41.4a24.084,24.084,0,0,0,1.806-3.726A23.755,23.755,0,0,0,50.3,34.336c.245-1.025.393-1.953.508-2.76l.115-1.124c.033-.343.035-.642.052-.915.039-.524.018-1.019.024-1.316v-.466ZM14.922,46.747,28.768,36.494v2.55L14.922,49.3Zm0-4.7L28.768,31.794v2.55L14.922,44.6Zm0-4.7L28.768,27.093v2.55L14.922,39.9Zm0-4.7L28.768,22.392v2.55L14.922,35.2Zm0-4.589L28.768,17.8v2.551L14.922,30.606Zm0-4.59L28.768,13.213v2.55L14.922,26.016Z" fill="#cabe9f" fill-rule="evenodd"/>
    <g id="Group_1" data-name="Group 1" transform="translate(-2 -26)">
      <path id="Path_4" data-name="Path 4" d="M11.654-6.592H4.865L4.4-5.458A11.5,11.5,0,0,0,3.375-2.241a1.436,1.436,0,0,0,.547,1.219,2.258,2.258,0,0,0,1.4.415V0H.013V-.606A2.864,2.864,0,0,0,1.78-1.444a10.252,10.252,0,0,0,1.4-2.749q.066-.2.633-1.529L9-18.127h.514l5.972,14.2.817,1.872a2.489,2.489,0,0,0,.745,1,2.725,2.725,0,0,0,1.4.455V0H11.43V-.606A5.239,5.239,0,0,0,13.177-.8a.741.741,0,0,0,.455-.758,7.677,7.677,0,0,0-.606-1.727Zm-.224-.593-3.164-7.62L5.115-7.185ZM28.424-9.65v-4.219q0-1.727-.046-2.175A.916.916,0,0,0,28-16.73a2.109,2.109,0,0,0-1.173-.237h-.277v-.606a14.861,14.861,0,0,0,3.494-.554h.277V-3.612a21.823,21.823,0,0,0,.066,2.294.809.809,0,0,0,.415.606,2.919,2.919,0,0,0,1.3.2V.092a19.156,19.156,0,0,0-3.4.343,8.649,8.649,0,0,1-.158-1.951,7.239,7.239,0,0,1-2.01,1.463A4.97,4.97,0,0,1,24.39.435a4.719,4.719,0,0,1-3.619-1.687,5.885,5.885,0,0,1-1.523-4.087A5.917,5.917,0,0,1,20.8-9.6a4.95,4.95,0,0,1,3.7-1.628,5.456,5.456,0,0,1,2.07.4A6.22,6.22,0,0,1,28.424-9.65Zm0,.765a6.793,6.793,0,0,0-1.747-1.127,4.435,4.435,0,0,0-1.76-.376,3.156,3.156,0,0,0-2.485,1.147,5.675,5.675,0,0,0-1,3.744,6.1,6.1,0,0,0,1.022,3.889A3.139,3.139,0,0,0,24.983-.356a3.774,3.774,0,0,0,1.859-.475,5.178,5.178,0,0,0,1.582-1.424ZM38.9.435H38.14L34.3-8.227a6.612,6.612,0,0,0-.9-1.6,1.528,1.528,0,0,0-1.081-.369V-10.8H37.2v.606a3.084,3.084,0,0,0-1.1.132.5.5,0,0,0-.3.5,5.044,5.044,0,0,0,.527,1.411L39.248-1.6l2.624-5.84a6.25,6.25,0,0,0,.62-1.819q0-.883-1.318-.936V-10.8h3.639v.606a1.567,1.567,0,0,0-1.127.56,11.084,11.084,0,0,0-1.272,2.34Z" transform="translate(164.999 64.999)" fill="#cabe9f"/>
      <path id="Redstone" d="M19.63,0H14.818A21.556,21.556,0,0,1,10.9-4.693Q10.059-5.906,9.149-7.02A9.119,9.119,0,0,0,7.9-8.378a1.861,1.861,0,0,0-1.068-.244H6.117v3.968a23.578,23.578,0,0,0,.1,2.762,1.4,1.4,0,0,0,.527.969,2.968,2.968,0,0,0,1.641.316h.857V0H.686V-.606h.58A3.1,3.1,0,0,0,2.854-.9a1.323,1.323,0,0,0,.56-.9,20.178,20.178,0,0,0,.119-2.854v-8.767a19.171,19.171,0,0,0-.119-2.755,1.18,1.18,0,0,0-.527-.857,4.159,4.159,0,0,0-1.767-.237h-.3v-.606l2.558-.132q2.558-.119,4.061-.119a15.012,15.012,0,0,1,4.159.475A5.562,5.562,0,0,1,14.186-16.1a3.7,3.7,0,0,1,.989,2.584,4,4,0,0,1-1.292,2.993,6.456,6.456,0,0,1-3.8,1.542q1.121.541,3.612,3.9A18.179,18.179,0,0,0,16.888-1.5a4.82,4.82,0,0,0,2.742.9ZM6.117-9.229q.989-.026,2.043-.079A7.625,7.625,0,0,0,9.993-9.6a3.127,3.127,0,0,0,1.259-.692,3.113,3.113,0,0,0,.758-1.193,5.213,5.213,0,0,0,.277-1.819,4.571,4.571,0,0,0-.943-3.019q-.943-1.134-4.107-1.134-.488,0-1.121.053ZM29.228-7.146H21.7q-.053.778-.053,1.16a8.225,8.225,0,0,0,.89,4.278,2.926,2.926,0,0,0,2.656,1.43,3.478,3.478,0,0,0,3.4-2.149h.633a3.685,3.685,0,0,1-1.674,2.1,5.174,5.174,0,0,1-2.729.758,5.167,5.167,0,0,1-2.591-.692,5.53,5.53,0,0,1-2-1.958,5.758,5.758,0,0,1-.778-3.072,6.171,6.171,0,0,1,1.5-4.252,4.815,4.815,0,0,1,3.757-1.694A4.184,4.184,0,0,1,28-9.94,4.415,4.415,0,0,1,29.228-7.146Zm-2.307-.527a4.228,4.228,0,0,0,.04-.541,2.352,2.352,0,0,0-.679-1.8,2.341,2.341,0,0,0-1.668-.639q-2.4,0-2.861,2.979ZM40.395-9.65v-4.219q0-1.727-.046-2.175a.916.916,0,0,0-.376-.686,2.109,2.109,0,0,0-1.173-.237h-.277v-.606a14.861,14.861,0,0,0,3.494-.554h.277V-3.612a21.823,21.823,0,0,0,.066,2.294.809.809,0,0,0,.415.606,2.919,2.919,0,0,0,1.3.2V.092a19.156,19.156,0,0,0-3.4.343,8.649,8.649,0,0,1-.158-1.951A7.239,7.239,0,0,1,38.5-.053,4.97,4.97,0,0,1,36.36.435a4.719,4.719,0,0,1-3.619-1.687,5.885,5.885,0,0,1-1.523-4.087A5.917,5.917,0,0,1,32.774-9.6a4.95,4.95,0,0,1,3.7-1.628,5.456,5.456,0,0,1,2.07.4A6.22,6.22,0,0,1,40.395-9.65Zm0,.765a6.793,6.793,0,0,0-1.747-1.127,4.435,4.435,0,0,0-1.76-.376A3.156,3.156,0,0,0,34.4-9.242a5.675,5.675,0,0,0-1,3.744,6.1,6.1,0,0,0,1.022,3.889A3.139,3.139,0,0,0,36.954-.356a3.774,3.774,0,0,0,1.859-.475,5.178,5.178,0,0,0,1.582-1.424ZM45.417.343V-3.2h.514q.9,3.072,3.2,3.072a1.817,1.817,0,0,0,1.5-.606,2.061,2.061,0,0,0,.494-1.332A1.9,1.9,0,0,0,50.6-3.454a8.5,8.5,0,0,0-2.1-1.305,8.017,8.017,0,0,1-2.347-1.582,2.663,2.663,0,0,1-.712-1.885,3.242,3.242,0,0,1,.765-2.037,2.581,2.581,0,0,1,2.149-.969,2.871,2.871,0,0,1,2.333,1.147,3.449,3.449,0,0,0,.514-.962h.488v3.335h-.488a4.548,4.548,0,0,0-1.022-2.063,2.309,2.309,0,0,0-1.786-.864,1.729,1.729,0,0,0-1.279.488,1.555,1.555,0,0,0-.488,1.134,1.634,1.634,0,0,0,.541,1.226,7.27,7.27,0,0,0,2.017,1.2A5.727,5.727,0,0,1,51.93-4.614a4.1,4.1,0,0,1,.5,1.872A3.021,3.021,0,0,1,51.5-.448a3.262,3.262,0,0,1-2.34.883,3.559,3.559,0,0,1-2.65-1.226,2.973,2.973,0,0,0-.58,1.134ZM60.737-10.191H57.48v6.526a9.947,9.947,0,0,0,.132,2.024,1.454,1.454,0,0,0,.56.837,1.514,1.514,0,0,0,.916.316,1.98,1.98,0,0,0,1.648-1.081l.422.25A2.827,2.827,0,0,1,59.952-.007a3.3,3.3,0,0,1-1.615.442,2.635,2.635,0,0,1-1.668-.56,2.343,2.343,0,0,1-.9-1.312A13.17,13.17,0,0,1,55.6-4.074v-6.117H54.026V-10.8a2.737,2.737,0,0,0,1.938-.91,4.38,4.38,0,0,0,1.094-2.479h.422V-10.8h3.256ZM62.2-5.418a5.64,5.64,0,0,1,1.661-4.146,5.544,5.544,0,0,1,4.087-1.668,5.548,5.548,0,0,1,4.1,1.674,5.646,5.646,0,0,1,1.661,4.14,5.56,5.56,0,0,1-1.687,4.291A5.783,5.783,0,0,1,67.948.435a5.707,5.707,0,0,1-4.067-1.589A5.59,5.59,0,0,1,62.2-5.418Zm2.188.066a6.537,6.537,0,0,0,.936,4.028A3.189,3.189,0,0,0,67.948-.171a3.177,3.177,0,0,0,2.643-1.154,6.647,6.647,0,0,0,.916-4.028,6.922,6.922,0,0,0-.91-4.061,3.108,3.108,0,0,0-2.65-1.213A3.118,3.118,0,0,0,65.3-9.42,6.879,6.879,0,0,0,64.389-5.353Zm14.027-5.88h.356A7.181,7.181,0,0,1,79.115-9a6.9,6.9,0,0,1,1.991-1.674,4.573,4.573,0,0,1,2.175-.554,3.79,3.79,0,0,1,2.116.541,2.431,2.431,0,0,1,1.061,1.325A8.373,8.373,0,0,1,86.7-7.08V-3.7a21.616,21.616,0,0,0,.066,2.281.828.828,0,0,0,.415.613,2.794,2.794,0,0,0,1.285.2V0H82.938V-.606h.25a1.9,1.9,0,0,0,1.239-.277,1.025,1.025,0,0,0,.33-.646Q84.8-1.9,84.8-3.7v-3.48a9.221,9.221,0,0,0-.125-1.826A1.711,1.711,0,0,0,84-9.98a2.211,2.211,0,0,0-1.391-.422,3.308,3.308,0,0,0-1.839.573,6.1,6.1,0,0,0-1.655,1.72v4.4a19.661,19.661,0,0,0,.073,2.281.848.848,0,0,0,.422.613,2.835,2.835,0,0,0,1.3.2V0H75.45V-.606a3.022,3.022,0,0,0,1.266-.185.811.811,0,0,0,.442-.56A17.07,17.07,0,0,0,77.243-3.7V-6.921a19.646,19.646,0,0,0-.073-2.287.845.845,0,0,0-.422-.606,2.835,2.835,0,0,0-1.3-.2v-.606A16.942,16.942,0,0,0,78.416-11.232Zm21.41,4.087H92.3q-.053.778-.053,1.16a8.225,8.225,0,0,0,.89,4.278,2.926,2.926,0,0,0,2.656,1.43,3.478,3.478,0,0,0,3.4-2.149h.633a3.685,3.685,0,0,1-1.674,2.1,5.174,5.174,0,0,1-2.729.758,5.167,5.167,0,0,1-2.591-.692,5.53,5.53,0,0,1-2-1.958,5.758,5.758,0,0,1-.778-3.072,6.171,6.171,0,0,1,1.5-4.252,4.815,4.815,0,0,1,3.757-1.694A4.184,4.184,0,0,1,98.6-9.94,4.415,4.415,0,0,1,99.826-7.146Zm-2.307-.527a4.228,4.228,0,0,0,.04-.541,2.352,2.352,0,0,0-.679-1.8,2.341,2.341,0,0,0-1.668-.639q-2.4,0-2.861,2.979Z" transform="translate(63.999 64.999)" fill="#3f4448"/>
    </g>
  </g>
</svg>
